<?xml version="1.0" encoding="UTF-8" standalone="no"?><!DOCTYPE svg PUBLIC "-//W3C//DTD SVG 1.1//EN" "http://www.w3.org/Graphics/SVG/1.1/DTD/svg11.dtd"><svg width="100%" height="100%" viewBox="0 0 100 100" version="1.1" xmlns="http://www.w3.org/2000/svg" xmlns:xlink="http://www.w3.org/1999/xlink" xml:space="preserve" xmlns:serif="http://www.serif.com/" style="fill-rule:evenodd;clip-rule:evenodd;stroke-linejoin:round;stroke-miterlimit:1.41421;"><rect x="0" y="20" width="100" height="80" style="fill:#3c3c36;"/><rect x="0" y="0" width="100" height="20" style="fill:#f1f1f1;"/><rect x="37.004" y="73.768" width="25.911" height="8.2" class="fill-primary"/><path d="M31.745,63.646l-18.321,18.322l-5.798,-5.798l12.523,-12.524l-12.523,-12.524l5.798,-5.798l18.321,18.322Z" class="fill-primary"/><path d="M80.775,73.768l0,8.2l-7.351,0l0,-8.2l7.351,0Zm0,-17.852l-7.787,0c0.025,-3.107 0.257,-5.375 0.694,-6.805c0.437,-1.429 1.384,-2.68 2.843,-3.752c1.458,-1.072 3.318,-1.608 5.58,-1.608c1.632,0 3.058,0.291 4.279,0.875c1.22,0.583 2.191,1.396 2.91,2.439c0.72,1.043 1.247,2.17 1.581,3.381c0.334,1.211 0.501,3.107 0.501,5.689l0,4.332c0,1.969 -0.161,3.552 -0.482,4.748c-0.321,1.196 -1.022,2.246 -2.101,3.15c-1.079,0.905 -2.345,1.357 -3.797,1.357c-1.889,0 -3.296,-0.839 -4.221,-2.516l0,3.807l-7.267,0l0,-9.737l7.093,0c0.026,1.342 0.45,2.013 1.272,2.013c0.643,0 1.051,-0.295 1.224,-0.886c0.174,-0.591 0.26,-2.038 0.26,-4.343l0,-5.886c0,-1.298 -0.08,-2.169 -0.24,-2.614c-0.161,-0.445 -0.479,-0.668 -0.955,-0.668c-0.591,0 -0.97,0.296 -1.137,0.886c-0.167,0.591 -0.25,1.922 -0.25,3.994l0,2.144Z" style="fill:#f1f1f1;"/><circle cx="13.108" cy="11.196" r="3.869" style="fill:#b7b7b7;"/><circle cx="24.25" cy="11.196" r="3.869" style="fill:#b7b7b7;"/><circle cx="36.258" cy="11.196" r="3.869" style="fill:#b7b7b7;"/></svg>